<svg viewBox="0 0 519 600" xmlns="http://www.w3.org/2000/svg" xml:space="preserve" style="fill-rule:evenodd;clip-rule:evenodd;stroke-linejoin:round;stroke-miterlimit:1.41421"><path id="rest-of-the-fucking-owl" d="M512.941 147.34 264.059 2.715a9.16 9.16 0 0 0-9.118 0L6.059 147.34c-2.816 1.621-4.559 4.727-4.559 7.968v289.384c0 3.241 1.743 6.347 4.559 7.968l248.882 144.625c1.475.81 2.95 1.215 4.559 1.215s3.218-.405 4.559-1.215L512.941 452.66c2.816-1.621 4.559-4.727 4.559-7.968V155.308c0-3.241-1.743-6.347-4.559-7.968Z" style="fill:url(#_Linear1);fill-rule:nonzero"/><g id="birds"><path d="M144.017 209.642c6.349.241 13.074-5.141 19.092 3.73 2.027-13.702 10.549-9.317 16.566-10.167-7.212 4.208-15.194 3.108-15.338 14.755-7.198-10.146-13.214-5.152-20.32-8.318ZM171.502 227.305c5.207.198 6.436-8.09 11.372-.814 1.663-11.238 6.242-2.572 11.177-3.27-5.916 3.452-10.536-3.655-10.654 5.898-5.904-8.321-6.067.783-11.895-1.814ZM141.945 227.314c4.361.165 9.378-1.753 13.511 4.34 1.393-9.412 6.849-8.178 10.983-8.762-4.955 2.89-10.438 2.135-10.536 10.135-4.945-6.969-9.077-3.539-13.958-5.713Z" style="fill:#cdcdcd"/></g><g id="sutro + hills"><path d="m445.715 285.161-.088 38.212c.088 1.666.549 2.337 1.463 2.459l4.628 1.096c.685.227 1.145-.987 1.136-1.806l-2.712-37.692c-.41-1.369-1.334-2.079-2.602-2.345l-1.825.076Zm-9.668 1.284-3.752 39.346c-.024.6.352.953 1.022 1.125l8.041-1.218c.503-.129 1.012-.708 1.341-2.149l.047-38.542-4.435-.051c-.973.113-1.802.479-2.264 1.489Zm9.927-29.574-.338 19.929c.052 1.249.366 2.011.883 2.395l2.625.774c.574.158.904-.518 1.123-1.572l1.878-20.098-4.86-1.701c-.977-.325-1.339-.177-1.311.273Zm-11.873 1.088 1.957 20.788c.017.935.477 1.251 1.219 1.174l4.289-.801c.645-.177 1.049-.945 1.231-2.258l.173-20.261c.046-.587-.26-.684-.891-.478l-7.978 1.836Zm12.135-27.482-.219 21.1 6.76 2.138 2.164-23.311-8.705.073Zm-14.758-.064 2.311 23.273 9.235-1.972.455-21.319-12.001.018Zm-5.727 140.056 8.184-85.968v-3.656l-4.9-50.408-9.735-.077-2.999-4.494h12.33l1.251-56.669h.934l.111 56.592h12.617l1.008-61.38 1.131-.022 1.138 61.367h8.474l.888-56.068h1.255l.405 56.187h12.679l-2.739 4.556-10.139-.051-5.222 50.164-.096 3.326 7.056 90.188h-2.934l-2.73-39.388c-.282-1.249-1.023-2.02-2.386-2.462l-5.508-.052.03 41.448h-3.075l.103-41.509h-8.972c-1.47.103-2.326.821-2.286 2.436l-3.369 36.181-2.504-.241Z" style="fill:#2d5d81"/><path d="M400.925 497.194c-36.465-8.612-62.823-33.292-62.823-62.362 0-35.366 39.015-64.236 87.777-65.577 12.445-21.485 40.329-37.211 73.674-40.007v110.543l-98.628 57.403Z" style="fill:#2d5d81"/></g><g id="transamerica + city"><path d="m76.861 473.207-46.316-26.956V326.29h46.316v146.917Z" style="fill:#5d96c2"/><path d="m78.213 473.994-57.095-33.23v-77.117h57.095v110.347Z" style="fill:#2d5d81"/><path d="m99.414 486.333-46.316-26.956V343.798h46.316v142.535Z" style="fill:#396c92"/><path style="fill:#4286ba" d="M190.463 332.671h57.095v143.972h-57.095z"/><path style="fill:#3e7eb0" d="M147.372 299.355h46.316v171.66h-46.316z"/><path style="fill:#417ca9" d="M115.391 359.607h57.095v143.972h-57.095z"/><path style="fill:#5d96c2" d="M169.262 312.822h46.316v171.66h-46.316z"/><path d="m55.351 460.688 21.574-116.045 2.156-50.423 2.794-1.131 5.19-3.208 13.02-68.142 2.01-.918 1.132.16 1.451 1.197 8.594 63.226 1.35.168 2.018-.447 6.162 4.072-.481 65.251 17.29 131.021-30.947-8.813-2.835-.146-20.583 1.577-29.895-17.399Z" style="fill:#eeddc1"/><path d="m106.228 287.485 10.412-2.36-1.349 120.482-9.063-118.122Z" style="fill:#6d6b6e"/><path d="m85.246 478.087-29.895-17.399 21.574-116.045 10.284-55.033 12.876-67.871 2.01-.918.877 65.182 2.857 190.507-20.583 1.577Z" style="fill:#576271"/><path d="m87.215 289.641-10.29 55.002 2.066-50.692 2.648-.696 5.576-3.614Z" style="fill:#6d6b6e"/><path d="m87.185 289.641-.359 2.393-5.53 1.348 5.889-3.741Z" style="fill:#334b5e"/><path d="m106.149 284.418.159 2.968 8.278-1.717-8.437-1.251Z" style="fill:#3a5567"/></g><g id="fog background"><path d="m101.842 487.746-82.395-47.955v-47.633c21.709-14.169 38.063-6.845 50.373 16.707 31.425 4.682 38.909 20.79 26.146 46.709 9.508 10.268 12.12 22.417 5.876 32.172Z" style="fill:#f1f1ef"/><path d="M66.821 451.21c-8.105-12.198-18.173-17.604-30.077-18.324 15.431-4.801 31.093 6.686 30.077 18.324Zm2.27 17.475-49.644-28.894v-35.193c18.203-2.931 27.933-.135 31.483 6.84-5.514.659-10.655 1.65-15.04 4.057 0 0 4.057 2.555 8.106 2.707 9.197.347 12.906-.903 18.412 1.659 6.965 3.242 11.371 9.822 13.487 8.891 2.467-2.779-.317-7.11-7.375-12.706 11.524-2.404 27.465 4.221 31.538 9.287 2.515 3.13 2.065 5.796.835 12.458-1.073 5.81-5.355 11.657-7.736 13.921-4.05 3.851-23.852 2.02-23.852 2.02 3.395 6.175 3.183 11.111-.214 14.953Z" style="fill:#e2e3dd"/><path d="m102.098 487.895-33.007-19.21c3.397-3.842 3.609-8.778.214-14.953 0 0 19.802 1.831 23.852-2.02 2.381-2.264 6.663-8.111 7.736-13.921 1.23-6.662-.835-12.458-.835-12.458 5.867 8.804-.69 22.212-3.66 27.378-1.548 2.693-.062 5.579.918 6.683 5.21 5.867 8.887 11.492 7.369 19.07.031 4.441-.799 7.443-2.587 9.431Z" style="fill:#d4d7ce"/><path d="M207.15 549.036 68.374 468.267c-10.163-23.661-1.908-38.404 27.927-42.849 12.82-24.528 30.027-31.455 53.101-14.834 26.218-9.986 43.615-8.895 50.102 5.898 15.937-10.518 32.976-9.674 51.808 9.643 24.094.39 26.327 1.921 32.508 22.824 0 0 6.466 13.75 1.813 25.221-2.455 6.053-11.163 9.184-15.737 13.319-4.637 4.192-5.122 9.35-4.963 9.854 6.448 20.358-9.042 22.432-33.649 23.366-6.078.231-12.57 3.681-16.047 10.716-2.355 8.018-4.913 13.718-8.087 17.611Z" style="fill:#f1f1ef"/><path d="M99.3 467.762c8.105-12.197 18.173-17.603 30.077-18.323-15.431-4.802-31.093 6.686-30.077 18.323Zm141.387-26.192c10.646 4.608 11.922 11.128 7.088 20.852 9.802-10.436 7.595-18.124-7.088-20.852ZM96.558 484.671c-2.937-3.757-2.972-8.511.259-14.387 0 0-19.803 1.832-23.853-2.02-2.381-2.263-6.663-8.11-7.736-13.92-1.23-6.662-1.68-9.328.836-12.458 4.072-5.066 20.013-11.692 31.538-9.288-7.059 5.597-9.843 9.928-7.376 12.706 2.116.931 6.522-5.648 13.487-8.89 5.506-2.563 9.215-1.312 18.412-1.659 4.049-.152 8.106-2.707 8.106-2.707-4.385-2.407-9.526-3.398-15.04-4.058 4.124-8.101 16.587-10.565 40.983-4.963 22.035-2.841 30.57-3.01 35.002 3.406 1.285 1.859-1.009 5.348-3.305 6.157-2.208.779-12.928.892-21.509 2.35-8.157 1.387-13.013 3.784-13.109 6.159 23.574-7.695 37.438-4.366 33.11 19.62 2.326-10.818 10.046-17.057 24.924-20.292-3.755-2.08-11.086-1.755-20.527-.011.47-3.949 1.592-7.612 4.148-10.643 8.734-9.867 24.366-.463 28.389 1.763 4.469 2.474 14.816 1.846 21.032 2.356 7.452.61 11.626 12.921 14.987 16.791 2.19 2.521 3.032-7.797 6.493-10.228 1.546-1.086 5.81-1.413 8.37.695 2.758 2.271 3.822 7.089 5.581 8.742 2.82 2.65 7.196 5.171 6.402 9.685 0 0-1.624 6.922-3.497 9.735-1.886 2.835-7.824 7.277-7.824 7.277-33.182 12.378-23.609-11.752-27.578-13.079-3.479-1.162-6.024 5.082-13.74 7.187-3.802 1.037-10.825.137-15.884-2.981-5.169-3.187-8.372-8.603-12.062-8.438-3.105.139-3.96 4.282-6.35 6.966-2.928 3.289-6.435 4.141-9.511 6.413-2.912 2.152-4.146 11.455-10.863 14.585-4.363 2.034-13.978 1.864-20.673-.806-5.77-2.3-8.516-7.067-13.901-6.711-5.12.338-6.062 9.36-10.853 12.905-6.096 4.509-16.16 3.368-24.375-.777-.108-.032-.215-.066-.322-.099l-12.171-7.083Z" style="fill:#e2e3dd"/><path d="M108.729 491.754c.107.033.214.067.322.099 8.215 4.145 18.279 5.286 24.375.777 4.791-3.545 5.733-12.567 10.853-12.905 5.385-.356 8.131 4.411 13.901 6.711 6.695 2.67 16.31 2.84 20.673.806 6.717-3.13 7.951-12.433 10.863-14.585 3.076-2.272 6.583-3.124 9.511-6.413 2.39-2.684 3.245-6.827 6.35-6.966 3.69-.165 6.893 5.251 12.062 8.438 5.059 3.118 12.082 4.018 15.884 2.981 7.716-2.105 10.261-8.349 13.74-7.187 3.969 1.327-5.604 25.457 27.578 13.079 0 0 5.938-4.442 7.824-7.277 1.873-2.813 3.497-9.735 3.497-9.735 1.322 3.789 1.251 13.426-2.603 18.309-4.17 5.282-13.053 7.055-14.626 9.842-3.499 6.198-6.85 17.963-10.305 18.34-6.153.67-9.218-4.934-10.408-15.885-8.203 16.534-22.316 17.597-37.83 10.573 9.908-7.993 17.352-15.833 9.977-21.831-11.129 13.096-23.104 17.671-34.845 16.068 2.755 2.594 8.014 3.359 17.075 2.935-5.195 25.43-22.211 30.254-47.783 20.164 5.426-5.286 8.146-11.285 8.834-17.338-5.895 6.138-11.618 10.254-18.085 12.438l-36.834-21.438Zm-12.171-7.083-27.015-15.723c-3.044-5.378-9.231-18.432-3.479-27.062 0 0-2.066 5.796-.836 12.458 1.073 5.81 5.355 11.657 7.736 13.92 4.05 3.852 23.853 2.02 23.853 2.02-3.231 5.876-3.196 10.63-.259 14.387Z" style="fill:#d4d7ce"/><path d="m198.737 544.14-21.584-12.562.12-.185-.218.128-31.492-18.329c6.467-2.184 12.19-6.3 18.085-12.438-.688 6.053-3.408 12.052-8.834 17.338 25.572 10.09 42.588 5.266 47.783-20.164-9.061.424-14.32-.341-17.075-2.935 11.741 1.603 23.716-2.972 34.845-16.068 7.375 5.998-.069 13.838-9.977 21.831 15.514 7.024 29.627 5.961 37.83-10.573 1.19 10.951 4.255 16.555 10.408 15.885 3.455-.377 5.929-11.128 5.929-11.128.254 2.355.55 4.759.794 7.206.277 2.774 2.225 6.567-.367 9.139-2.279 2.262-7.823 3.934-12.892 4.84-7.942 1.836-15.842 1.776-23.735 1.371-8.877 4.096-14.058.918-17.118-6.432-1.539 13.337-10.073 19.399-24.124 19.722 5.228 2.297 11.785 2.436 21.005-1.755-1.233 3.279-.65 5.88-2.258 8.283-1.971 2.945-4.373 5.236-7.125 6.826Z" style="fill:#bdc1b2"/><path d="m207.15 549.036-8.413-4.896c2.752-1.59 5.154-3.881 7.125-6.826 1.608-2.403 1.025-5.004 2.258-8.283-9.22 4.191-15.777 4.052-21.005 1.755 14.051-.323 22.585-6.385 24.124-19.722 3.06 7.35 8.241 10.528 17.118 6.432 7.893.405 15.793.465 23.735-1.371 5.069-.906 10.613-2.578 12.892-4.84.099-.098.191-.197.276-.298-3.768 7.834-16.599 9.062-33.976 9.722-6.078.231-12.57 3.681-16.047 10.716-2.355 8.017-4.913 13.718-8.087 17.611Zm-29.997-17.458-.098-.057.218-.128-.12.185Z" style="fill:#acb0a0"/><path d="m259.5 579.505-124.651-72.548c.484-.58.99-1.155 1.517-1.724-12.762-25.92-5.279-42.028 26.146-46.71 12.821-24.527 30.027-31.455 53.101-14.833 26.219-9.987 43.616-8.895 50.103 5.898 15.937-10.519 32.976-9.674 51.807 9.643 24.094.39 26.327 1.921 32.508 22.824 0 0 6.466 13.75 1.813 25.221-2.455 6.053-11.163 9.184-15.737 13.319-4.637 4.192-5.122 9.35-4.962 9.854.771 2.434 1.228 4.606 1.393 6.547l-28.371 16.512a355.3 355.3 0 0 1-6.671.307c-6.078.23-12.57 3.68-16.048 10.716-.271.923-.545 1.816-.822 2.678L259.5 579.505Z" style="fill:#f1f1ef"/><path d="M165.512 500.868c8.105-12.198 18.172-17.604 30.077-18.324-15.431-4.801-31.094 6.687-30.077 18.324Zm141.387-26.193c10.646 4.609 11.921 11.129 7.088 20.852 9.801-10.435 7.594-18.124-7.088-20.852Zm-143.086-8.971c-7.058 5.596-9.842 9.928-7.375 12.706 2.116.931 6.522-5.649 13.487-8.89 5.505-2.563 9.215-1.313 18.411-1.659 4.05-.153 8.106-2.707 8.106-2.707-4.384-2.408-9.526-3.399-15.039-4.058 4.123-8.101 16.586-10.565 40.982-4.963 22.035-2.841 30.571-3.011 35.003 3.406 1.284 1.859-1.01 5.348-3.305 6.157-2.209.779-12.928.892-21.509 2.35-8.158 1.386-13.014 3.784-13.109 6.159 23.573-7.696 37.437-4.366 33.11 19.619 2.325-10.817 10.045-17.057 24.924-20.291-3.755-2.08-11.087-1.755-20.528-.011.47-3.949 1.593-7.612 4.149-10.643 8.733-9.867 24.366-.463 28.388 1.763 4.47 2.474 14.817 1.846 21.033 2.355 7.452.611 11.626 12.922 14.987 16.792 2.189 2.521 3.031-7.797 6.492-10.228 1.547-1.087 5.81-1.413 8.371.695 2.757 2.271 3.821 7.089 5.58 8.742 2.82 2.65 7.196 5.171 6.402 9.685 0 0-1.624 6.921-3.496 9.735-1.887 2.835-7.824 7.277-7.824 7.277-33.182 12.378-23.609-11.752-27.579-13.079-3.479-1.163-6.024 5.081-13.74 7.186-3.802 1.037-10.825.138-15.883-2.981-5.169-3.186-8.373-8.602-12.062-8.437-3.105.139-3.961 4.282-6.35 6.966-2.928 3.289-6.435 4.141-9.511 6.413-2.913 2.151-4.147 11.455-10.864 14.585-4.363 2.033-13.978 1.863-20.673-.806-5.769-2.301-8.515-7.068-13.9-6.712-5.12.338-6.063 9.361-10.854 12.906-6.095 4.509-16.16 3.368-24.374-.777-13.271-4.031-18.058-10.977-12.235-21.569 0 0-19.803 1.832-23.853-2.02-2.38-2.263-6.663-8.11-7.735-13.92-1.23-6.663-1.681-9.328.835-12.458 4.072-5.066 20.014-11.692 31.538-9.288Z" style="fill:#e2e3dd"/><path d="M135.955 507.6c.666-1.395 1.055-3.359-.021-5.23-2.97-5.166-9.527-18.575-3.659-27.378 0 0-2.065 5.795-.835 12.458 1.072 5.81 5.355 11.657 7.735 13.92 4.05 3.852 23.853 2.02 23.853 2.02-5.823 10.592-1.036 17.538 12.235 21.569 8.214 4.145 18.279 5.286 24.374.777 4.791-3.545 5.734-12.568 10.854-12.906 5.385-.356 8.131 4.411 13.9 6.712 6.695 2.669 16.31 2.839 20.673.806 6.717-3.13 7.951-12.434 10.864-14.585 3.076-2.272 6.583-3.124 9.511-6.413 2.389-2.684 3.245-6.827 6.35-6.966 3.689-.165 6.893 5.251 12.062 8.437 5.058 3.119 12.081 4.018 15.883 2.981 7.716-2.105 10.261-8.349 13.74-7.186 3.97 1.327-5.603 25.457 27.579 13.079 0 0 5.937-4.442 7.824-7.277 1.872-2.814 3.496-9.735 3.496-9.735 1.322 3.789 1.252 13.425-2.603 18.308-4.169 5.283-13.052 7.055-14.626 9.842-3.499 6.199-6.849 17.964-10.305 18.34-6.153.671-9.217-4.933-10.408-15.884-8.203 16.533-22.316 17.597-37.829 10.572 9.907-7.992 17.351-15.832 9.977-21.831-11.129 13.097-23.105 17.671-34.845 16.069 2.755 2.593 8.014 3.358 17.075 2.934-5.196 25.431-22.212 30.255-47.783 20.165 5.426-5.287 8.145-11.285 8.833-17.339-7.843 8.167-15.383 12.755-24.773 13.976L135.955 507.6Z" style="fill:#d4d7ce"/><path d="m259.336 579.409-18.548-10.795 2.697-4.115a106.513 106.513 0 0 1-5.013 2.767l-33.386-19.431c9.39-1.221 16.93-5.809 24.773-13.976-.688 6.054-3.407 12.052-8.833 17.339 25.571 10.09 42.587 5.266 47.783-20.165-9.061.424-14.32-.341-17.075-2.934 11.74 1.602 23.716-2.972 34.845-16.069 7.374 5.999-.07 13.839-9.977 21.831 15.513 7.025 29.626 5.961 37.829-10.572 1.191 10.951 4.255 16.555 10.408 15.884 3.456-.376 5.929-11.127 5.929-11.127.254 2.355.55 4.759.795 7.206.064.649.221 1.353.389 2.085l-22.779 13.257c-4.876.376-9.742.257-14.604.008-8.878 4.096-14.059.918-17.119-6.432-1.539 13.336-10.072 19.399-24.124 19.722 5.229 2.297 11.785 2.436 21.006-1.756-1.234 3.28-.65 5.88-2.259 8.284a23.77 23.77 0 0 1-2.664 3.317l-9.528 5.546a23.99 23.99 0 0 1-.545.126Z" style="fill:#bdc1b2"/><path d="m259.5 579.505-.164-.096c.183-.04.364-.082.545-.126l-.381.222Zm-18.712-10.891-2.316-1.348c1.572-.81 3.24-1.729 5.013-2.767l-2.697 4.115Zm39.838-1.405-11.215 6.528a23.89 23.89 0 0 0 2.662-3.317c1.609-2.404 1.025-5.004 2.259-8.284-9.221 4.192-15.777 4.053-21.006 1.756 14.052-.323 22.585-6.386 24.124-19.722 3.06 7.35 8.241 10.528 17.119 6.432 4.862.249 9.728.368 14.604-.008l-5.005 2.913c-2.137.123-4.364.22-6.672.308-6.078.23-12.57 3.68-16.048 10.716-.271.923-.545 1.815-.822 2.678Z" style="fill:#acb0a0"/><path d="M381.934 508.247c-9.991-10.261-8.115-24.413 2.725-36.12-12.763-25.92-5.279-42.027 26.146-46.709 12.82-24.528 30.027-31.455 53.101-14.834 14.831-5.649 26.839-7.753 35.647-5.837v35.044l-117.619 68.456Z" style="fill:#f1f1ef"/><path d="M413.805 467.762c8.104-12.197 18.172-17.603 30.076-18.323-15.43-4.802-31.093 6.686-30.076 18.323Zm83.768-26.818-81.842 47.633c-7.094-4.165-8.886-10.152-4.41-18.293 0 0-19.803 1.832-23.853-2.02-2.38-2.263-6.663-8.11-7.736-13.92-1.229-6.662-1.68-9.328.836-12.458 4.072-5.066 20.014-11.692 31.538-9.288-7.058 5.597-9.842 9.928-7.376 12.706 2.117.931 6.523-5.648 13.488-8.89 5.505-2.563 9.215-1.312 18.411-1.659 4.05-.152 8.106-2.707 8.106-2.707-4.384-2.407-9.526-3.398-15.039-4.058 4.123-8.101 16.586-10.565 40.982-4.963 14.708-1.896 23.402-2.602 28.875-.954v10.982c-4.298.441-12.119.769-18.687 1.885-8.157 1.387-13.013 3.784-13.109 6.159 13.885-4.532 24.402-5.24 29.816-.155Z" style="fill:#e2e3dd"/><path d="m399.228 498.181-15.596 9.078c-5.333-1.339-7.744-4.733-7.692-12.242-1.518-7.578 2.159-13.203 7.37-19.07.98-1.104 2.465-3.99.917-6.683-2.97-5.166-9.527-18.574-3.659-27.378 0 0-2.065 5.796-.836 12.458 1.073 5.81 5.356 11.657 7.736 13.92 4.05 3.852 23.853 2.02 23.853 2.02-4.476 8.141-2.684 14.128 4.41 18.293l-14.021 8.16a85.79 85.79 0 0 1-.697-1.259c-.858.859-1.446 1.761-1.785 2.703Z" style="fill:#d4d7ce"/><path d="m383.544 507.31-2.277 1.325c-1.651-1.237-2.38-2.655-3.32-3.664 0 0 1.235 1.442 5.597 2.339Zm18.166-10.573-2.482 1.444c.339-.942.927-1.844 1.785-2.703.231.426.464.846.697 1.259Z" style="fill:#bdc1b2"/><path d="m436.788 476.321-134.732 78.416c-5.391-3.486-9.169-10.209-12.53-21.657-3.478-7.035-9.969-10.485-16.048-10.716-24.606-.934-40.096-3.008-33.649-23.365.16-.504-.325-5.663-4.962-9.855-4.574-4.135-13.282-7.265-15.737-13.319-4.653-11.471 1.813-25.22 1.813-25.22 6.181-20.903 8.414-22.435 32.508-22.825 18.831-19.317 35.871-20.161 51.807-9.643 6.487-14.792 23.884-15.884 50.103-5.897 23.074-16.622 40.28-9.695 53.101 14.833 31.425 4.682 38.909 20.79 26.146 46.709.773.835 1.5 1.682 2.18 2.539Z" style="fill:#f1f1ef"/><path d="M405.462 469.418c-8.104-12.198-18.172-17.604-30.076-18.324 15.43-4.801 31.093 6.686 30.076 18.324Zm-141.386-26.193c-10.647 4.608-11.922 11.128-7.088 20.852-9.802-10.436-7.595-18.124 7.088-20.852Zm143.085-8.971c7.058 5.596 9.842 9.928 7.376 12.706-2.117.931-6.523-5.649-13.488-8.891-5.505-2.562-9.215-1.312-18.411-1.659-4.05-.152-8.106-2.707-8.106-2.707 4.384-2.407 9.526-3.398 15.039-4.057-4.123-8.101-16.586-10.566-40.982-4.964-22.035-2.841-30.57-3.01-35.003 3.406-1.284 1.86 1.01 5.348 3.306 6.158 2.208.779 12.927.891 21.509 2.35 8.157 1.386 13.013 3.783 13.109 6.159-23.574-7.696-37.438-4.366-33.111 19.619-2.325-10.818-10.045-17.057-24.924-20.291 3.755-2.081 11.087-1.756 20.528-.011-.47-3.95-1.593-7.612-4.149-10.643-8.733-9.868-24.366-.464-28.388 1.763-4.469 2.473-14.817 1.845-21.033 2.355-7.452.611-11.625 12.922-14.987 16.791-2.189 2.521-3.031-7.797-6.492-10.228-1.547-1.086-5.81-1.413-8.371.696-2.757 2.271-3.821 7.089-5.58 8.741-2.82 2.65-7.196 5.172-6.402 9.686 0 0 1.624 6.921 3.496 9.734 1.887 2.836 7.824 7.278 7.824 7.278 33.183 12.378 23.609-11.753 27.579-13.079 3.479-1.163 6.024 5.081 13.74 7.186 3.802 1.037 10.825.137 15.884-2.981 5.168-3.186 8.372-8.603 12.062-8.438 3.104.139 3.96 4.282 6.349 6.966 2.928 3.29 6.436 4.142 9.511 6.413 2.913 2.152 4.147 11.455 10.864 14.586 4.363 2.033 13.978 1.863 20.673-.807 5.769-2.3 8.515-7.067 13.901-6.711 5.119.338 6.062 9.36 10.853 12.905 6.095 4.51 16.16 3.369 24.374-.776 13.271-4.031 18.058-10.977 12.235-21.569 0 0 19.803 1.831 23.853-2.02 2.38-2.264 6.663-8.11 7.735-13.921 1.23-6.662 1.681-9.328-.835-12.457-4.072-5.067-20.014-11.692-31.538-9.288Z" style="fill:#e2e3dd"/><path d="M367.632 516.57c-10.213-.859-18.194-5.495-26.517-14.161.688 6.053 3.407 12.052 8.833 17.338-25.571 10.091-42.587 5.266-47.783-20.164 9.062.424 14.32-.341 17.075-2.935-11.74 1.603-23.716-2.972-34.845-16.068-7.374 5.998.07 13.839 9.977 21.831-15.513 7.024-29.626 5.961-37.829-10.572-1.19 10.951-4.255 16.555-10.408 15.884-3.456-.377-6.806-12.141-10.305-18.34-1.574-2.787-10.457-4.56-14.626-9.842-3.855-4.883-3.925-14.52-2.603-18.308 0 0 1.624 6.921 3.496 9.734 1.887 2.836 7.824 7.278 7.824 7.278 33.183 12.378 23.609-11.753 27.579-13.079 3.479-1.163 6.024 5.081 13.74 7.186 3.802 1.037 10.825.137 15.884-2.981 5.168-3.186 8.372-8.603 12.062-8.438 3.104.139 3.96 4.282 6.349 6.966 2.928 3.29 6.436 4.142 9.511 6.413 2.913 2.152 4.147 11.455 10.864 14.586 4.363 2.033 13.978 1.863 20.673-.807 5.769-2.3 8.515-7.067 13.901-6.711 5.119.338 6.062 9.36 10.853 12.905 6.095 4.51 16.16 3.369 24.374-.776 13.271-4.031 18.058-10.977 12.235-21.569 0 0 19.803 1.831 23.853-2.02 2.38-2.264 6.663-8.11 7.735-13.921 1.23-6.662-.835-12.457-.835-12.457 5.868 8.803-.689 22.211-3.659 27.377-1.336 2.324-.414 4.79.494 6.132l-67.902 39.519Z" style="fill:#d4d7ce"/><path d="m330.756 538.033-17.534 10.205c-5.85-.8-10.781-3.979-14.321-9.269-1.609-2.403-1.025-5.003-2.259-8.283 9.221 4.191 15.778 4.052 21.006 1.755-14.052-.323-22.585-6.385-24.124-19.722-3.06 7.35-8.241 10.528-17.118 6.432-7.893.405-15.794.465-23.735-1.37-5.069-.907-10.613-2.579-12.893-4.841-2.591-2.572-.644-6.365-.367-9.138.245-2.448.541-4.851.795-7.206 0 0 2.473 10.75 5.929 11.127 6.153.671 9.218-4.933 10.408-15.884 8.203 16.533 22.316 17.596 37.829 10.572-9.907-7.992-17.351-15.833-9.977-21.831 11.129 13.096 23.105 17.671 34.845 16.068-2.755 2.594-8.013 3.359-17.075 2.935 5.196 25.43 22.212 30.255 47.783 20.164-5.426-5.286-8.145-11.285-8.833-17.338 8.323 8.666 16.304 13.302 26.517 14.161l-34.027 19.805a103.358 103.358 0 0 1-6.116-3.326l3.267 4.984Z" style="fill:#bdc1b2"/><path d="m333.605 536.375-2.849 1.658-3.267-4.984a103.626 103.626 0 0 0 6.116 3.326Zm-20.384 11.863-11.165 6.499c-5.391-3.486-9.169-10.209-12.53-21.657-3.478-7.035-9.969-10.485-16.048-10.716-17.377-.659-30.207-1.887-33.975-9.722.085.101.177.201.275.298 2.28 2.262 7.824 3.934 12.893 4.841 7.941 1.835 15.842 1.775 23.735 1.37 8.877 4.096 14.058.918 17.118-6.432 1.539 13.337 10.072 19.399 24.124 19.722-5.228 2.297-11.785 2.436-21.006-1.755 1.234 3.28.65 5.88 2.259 8.283 3.54 5.289 8.471 8.469 14.32 9.269Z" style="fill:#acb0a0"/></g><g id="bridge"><path d="M247.165 217.252v349.42h1.406v-352.12l-1.406 2.7Zm11.675-19.31v368.599h1.406V195.093l-1.406 2.849Zm-22.161 368.281-1.405-.818V237.419l1.405-2.544v331.348Zm47.566-1.12-1.406.818V209.579l1.406 2.743v352.781Zm11.026-6.418-1.405.818V218.876l1.405 2.674v337.135Zm-70.483.617-1.405-.818V255.871l1.405-2.402v305.833Zm81.293-6.908-1.405.818V234.659l1.405 2.558v315.177Zm-93.184-.013-1.406-.818V274.535l1.406-2.256v280.102Zm105.076-6.908-1.406.818V197.904l1.406 2.836v344.733Zm-117.184-.139-1.405-.818V292.558l1.405-2.118v254.894Zm127.994-6.153-1.405.818V197.904l1.405 2.836v338.441Zm-140.317-1.019-1.406-.818V310.793l1.406-1.975v229.344Zm-12.757-7.424-1.405-.818V329.674l1.405-1.83v202.894Zm-12.756-7.425-1.405-.817V347.052l1.405-1.696v177.957Zm-12.972-7.55-1.405-.817V364.859l1.405-1.558v152.462Zm-12.756-7.424-1.406-.818V382.022l1.406-1.424v127.741Zm-13.405-7.801-1.405-.818V399.183l1.405-1.289v102.644Zm-13.405-7.802-1.405-.818v-75.999l1.405-1.161v77.978Zm-13.621-7.928-1.405-.818v-51.551l1.405-1.033v53.402Zm-14.053-8.179-1.405-.818v-26.637l1.405-.904v28.359Zm-13.837-8.053-1.406-.818v-2.703l1.406-.786v4.307Z" style="fill:#c54e45"/><path d="m458.65 463.597-2.182 1.27c-63.292-72.934-124.487-172.188-184.543-285.748l2.162-1.795c65.751 126.317 127.212 220.281 184.563 286.273ZM66.822 467.364l-2.394-1.393c74.113-84.803 141.917-181.077 203.245-289.126l2.429 2.769c-58.962 102.7-125.889 199.26-203.28 287.75Z" style="fill:#c54e45"/><path d="M330.03 538.455v-15.448l-2.619-1.602v-13.511l-1.601-1.978v-7.264l-.641-1.177v-4.702l-2.619-4.805v-2.138l-3.204-.216-.961-1.177-25.563.528-1.657.961-2.46.641v2.779l-1.922 3.74-1.762.056v5.462l-.612 1.049v6.755l-1.041 1.95v13.671l-1.55 1.63v42.6h-20.931V344.541l1.71-1.281v-41.673l.881-2.431v-38.494l1.041-.909v-78.911l4.325-4.193h4.433l3.712 5.073v2.912l5.874.48 1.47.401h1.55l1.389 1.069 36.019-.849.749-.961.909-.749 6.035-.08 6.167-9.398 5.362.005 3.099 5.182.641 3.26v74.167l1.498 1.498v41.656l.641 2.458v38.191l2.458 2.138v183.236l-20.82 12.117Zm-.271-140.717v49.603l-1.39-.08-.989 1.47h-1.87l-1.55 1.521-5.394.08-1.95.721-26.457.24-.909-.64-2.351-.16-1.469-.881h-1.711l-2.43-1.922v-48.242l1.95-2.431.028-6.034.749-1.254v-3.472l2.082-4.433 2.111-.48.4-.989 3.712.08.721-1.15c7.698-.627 16.133-.748 25.132-.48l6.591 1.682 2.055 3.924v3.793l1.309 1.281v6.355l1.63 1.898Zm1.98-89.187v33.124l-1.359.854-.659 2.296-2.064 1.343-9.469 2.403-21.341.427-13.207-1.015v-.819l-1.922-.766v-1.674l-1.068-.98-.854-1.3v-32.219l.66-1.087v-6.282l.926-1.067v-3.81l.766-1.12v-1.086l1.033-.748v-1.3l1.762-.675.55-.975 3.49.107 1.37-1.371 28.089-.818 2.816.072 5.625 2.048 3.116 4.236v3.508l.907 1.087v5.857l.833 1.75Zm1.806-88.287v37.306l-1.294 1.037v2.336h-1.189l-1.095 1.282-1.856-.04-1.376 1.361-8.423.921-30.327.841-1.336-.735-2.617-.04v-.374l-1.776-.04-.4-.375-2.737-1.761v-1.376l-1.402-1.441v-37.087l.949-1.335v-3.498l2.243-4.058h1.776l.975-1.496h3.097l2.169-2.148 34.601-.559 4.205 1.496h1.736l3.137 4.405v3.844l.94 1.534Z" style="fill:#73302a"/><path d="m270.021 486.636 2.297-.36.116 79.989 3.039.004-.317-42.62.608-1.202 1.114 1.904.166 41.958 2.272-.047-.207-42.647 1.206-1.415.089-14.087 1.218-1.432-.274-7.402 1.23-.938-.108-5.354 1.587-.254 1.513-3.452.005-2.586 3.13-.128v2.779l-1.922 3.74-1.762.056v5.462l-.612 1.049v6.755l-1.041 1.95v13.671l-1.55 1.63v42.6l-11.427.102-.37-79.725ZM272.505 380.193h-1.776v67.122l-.987 2.296.28 1.096h1.856l.801-2.337.669-.881v-50.267l-.641-2.296-.202-14.733Zm4.102 17.959v49.007l-.936-.08v-49.002l.936.075Zm7.196-16.488-1.5 3.923-1.241-.084.042 4.368-1.125.674.098 6.559-.683 1.554-.32 49.032h2.215v-48.242l1.95-2.431.028-6.034.749-1.254v-3.472l2.082-4.433-2.295-.16ZM273.282 293.591l-.16 53.064-2.421 1.656-.089-2.262 1.228-1.46v-51.225l1.442.227Zm2.639 14.999-.076 37.524c.482-1.983 1.098-3.419 2.028-4.093 1.019 1.397 1.344 2.812 1.317 4.236l2.201 1.718 2.249-.331-1.922-1.246v-1.674l-1.068-.98-.854-1.3v-32.219l.66-1.087v-6.282l.926-1.067v-3.81l.766-1.12v-1.086l1.033-.748v-1.3l-2.119-.037-1.37 3.564-1.052.152.049 4.312-1.208.993.137 5.895-.414 1.2-1.283-1.214ZM278.76 213.027l-1.409 3.325-1.487.063.073 4.224-1.363.901.264 5.847-.523 1.391-.992-2.025.363-12.835-.668-1.657-.481 1.41-.184 45.354-1.128 3.236.695 2.3 1.959-2.43-.138-2.425 1.442-1.689 1.337 1.64.241 2.458 1.703 1.738 3.072-.029-2.417-1.841v-1.376l-1.402-1.441v-37.087l.949-1.335v-3.498l2.243-4.058-2.149-.161ZM341.591 531.727l-2.36 1.374-.224-84.002 1.14-1.673-.778-102.719 1.219-1.478.256-45.274-.392-38.682.953-1.523-.41-75.487 5.258.731v74.167l1.498 1.498v41.656l.641 2.458v38.191l2.458 2.138.131 183.16-2.803 1.631V342.738l-1.121-1.62-1.212 1.565v186.568l-1.921 1.118v-80.987l.713-1.428V302.523l.785-2.016v-42.565l-1.229-1.407-1.086 2.071v41.612l-.625 2.19v144.78l-.891 1.941v82.598ZM499.032 440.095c-50.313-65.885-101.003-151.043-152.413-250.072l.013-6.621C396.486 282.5 447.48 369.584 499.553 437.389v2.402l-.521.304Z" style="fill:#c54e45"/><path d="m117.702 496.977-2.669-1.554c77.997-88.286 151.78-193.482 220.596-318.61l3.26 2.669c-64.341 112.587-135.18 220.503-221.187 317.495ZM352.349 525.465l-1.405.818V197.904l1.405 2.836v324.725Zm10.595-6.166-1.406.818V218.011l1.406 2.692v298.596Zm10.377-6.04-1.405.818V237.47l1.405 2.543v273.246Zm10.378-6.04-1.405.818V256.496l1.405 2.402v248.321Zm10.378-6.04-1.405.818V275.089l1.405 2.262v223.828Zm10.162-5.914-1.406.818V292.386l1.406 2.133v200.746Zm10.162-5.914-1.406.818V309.682l1.406 2.003v177.666Zm9.945-5.788-1.405.818V325.898l1.405 1.882v155.783Zm9.513-5.537-1.405.818V341.681l1.405 1.764v134.581Zm9.729-5.662-1.405.817V357.464l1.405 1.645v113.255Zm9.513-5.537-1.405.818v-95.479l1.405 1.537v93.124Zm9.513-5.537-1.405.818v-75.456l1.405 1.429v73.209Zm9.297-5.411-1.405.818v-56.641l1.405 1.33v54.493Zm9.297-5.411-1.405.818v-37.825l1.405 1.23v35.777Zm8.865-5.159-1.406.818v-20.775l1.406 1.142v18.815Zm9.08-5.285-1.405.818v-2.95l1.405 1.049v1.083Z" style="fill:#c54e45"/></g><g id="fog foreground"><path d="m498.684 440.298-131.361 76.453c-4.031-1.181-7.733-.229-10.225-2.353-9.891-8.428-8.745-20.777.614-30.885-10.383-21.089-4.294-34.194 21.273-38.004 10.431-19.956 24.43-25.592 43.204-12.068 21.332-8.126 35.486-7.238 40.764 4.798 11.131-7.347 22.923-7.88 35.731 2.059Z" style="fill:#f1f1ef"/><path d="M381.426 479.961c6.594-9.924 14.785-14.322 24.471-14.908-12.555-3.906-25.298 5.44-24.471 14.908Zm83.116-19.793-5.889 3.428c1.646-1.323 3.601-2.459 5.889-3.428Zm5.629-3.276c-3.337-.696-8.306-.293-14.333.82.383-3.213 1.296-6.193 3.376-8.659 6.739-7.615 18.528-1.124 22.518 1.111l-11.561 6.728Zm-17.284 10.06-59.116 34.406a29.462 29.462 0 0 1-4.412-1.796c-10.797-3.279-14.692-8.931-9.954-17.549 0 0-16.112 1.49-19.407-1.643-1.937-1.842-5.421-6.599-6.294-11.326-1-5.421-1.367-7.589.68-10.136 3.313-4.122 16.283-9.512 25.66-7.556-5.743 4.553-8.008 8.077-6.001 10.337 1.721.758 5.306-4.596 10.973-7.233 4.479-2.085 7.498-1.068 14.98-1.35 3.295-.124 6.595-2.202 6.595-2.202-3.567-1.959-7.75-2.765-12.236-3.302 3.355-6.591 13.495-8.596 33.343-4.038 17.929-2.311 24.873-2.449 28.479 2.771 1.045 1.513-.821 4.351-2.689 5.01-1.797.634-10.518.726-17.5 1.912-6.637 1.128-10.588 3.078-10.666 5.011 16.474-5.378 27.12-4.138 27.565 8.684Z" style="fill:#e2e3dd"/><path d="M376.888 511.184c-2.049-2.261-3.986-5.207-5.87-8.673-2.98 2.982-1.959 6.608 1.801 10.674-3.258.002-7.496-.449-10.087-.481-8.455-.105-12.172-2.184-12.114-10.568-1.234-6.166 1.757-10.742 5.997-15.516.797-.898 2.006-3.246.746-5.437-2.416-4.203-7.751-15.112-2.977-22.275 0 0-1.68 4.715-.68 10.136.873 4.727 4.357 9.484 6.294 11.326 3.295 3.133 19.407 1.643 19.407 1.643-4.738 8.618-.843 14.27 9.954 17.549a29.462 29.462 0 0 0 4.412 1.796l-16.883 9.826Z" style="fill:#d4d7ce"/><path d="m376.888 511.184-8.832 5.14c-3.327-1.033-7.256-.724-10.539-1.81-3.377-1.118-4.132-3.063-5.266-4.279 0 0 2.026 2.364 10.481 2.469 2.591.032 6.829.483 10.087.481-3.76-4.066-4.781-7.692-1.801-10.674 1.884 3.466 3.821 6.412 5.87 8.673Z" style="fill:#bdc1b2"/><path d="M283.994 565.249c-12.508.958-18.452-3.441-23.322-20.023-2.829-5.724-8.111-8.531-13.056-8.719-20.02-.76-32.623-2.447-27.377-19.011.129-.41-.265-4.606-4.038-8.017-3.721-3.365-10.806-5.912-12.804-10.837-3.785-9.333 1.476-20.52 1.476-20.52 5.028-17.007 6.845-18.252 26.448-18.57 15.322-15.716 29.185-16.403 42.152-7.846 5.277-12.035 19.432-12.923 40.764-4.798 18.773-13.524 32.772-7.887 43.203 12.069 25.568 3.809 31.657 16.915 21.273 38.003 2.817 3.042 4.89 6.287 6.141 9.567l-100.86 58.702Z" style="fill:#f1f1ef"/><path d="M355 493.429c-6.594-9.924-14.786-14.323-24.471-14.908 12.555-3.907 25.298 5.44 24.471 14.908Zm-115.034-21.311c-8.662 3.75-9.7 9.055-5.767 16.966-7.975-8.491-6.179-14.746 5.767-16.966Zm116.416-7.299c5.743 4.553 8.008 8.078 6.001 10.338-1.722.757-5.307-4.596-10.974-7.234-4.479-2.084-7.497-1.067-14.979-1.349-3.295-.124-6.596-2.203-6.596-2.203 3.568-1.958 7.751-2.765 12.237-3.301-3.355-6.591-13.495-8.596-33.344-4.038-17.928-2.312-24.873-2.449-28.479 2.771-1.045 1.513.822 4.351 2.689 5.01 1.797.633 10.519.725 17.5 1.912 6.637 1.127 10.588 3.078 10.666 5.011-19.18-6.262-30.46-3.553-26.939 15.962-1.892-8.801-8.173-13.878-20.278-16.509 3.055-1.693 9.02-1.428 16.701-.009-.382-3.213-1.295-6.193-3.375-8.659-7.106-8.029-19.825-.377-23.097 1.434-3.637 2.013-12.055 1.502-17.113 1.916-6.063.497-9.459 10.514-12.193 13.662-1.782 2.051-2.467-6.344-5.283-8.322-1.258-.884-4.727-1.149-6.81.566-2.244 1.848-3.109 5.768-4.54 7.112-2.295 2.156-5.855 4.208-5.209 7.881 0 0 1.321 5.631 2.845 7.92 1.535 2.307 6.365 5.921 6.365 5.921 26.998 10.071 19.209-9.562 22.439-10.641 2.83-.946 4.901 4.134 11.179 5.846 3.093.844 8.807.112 12.923-2.425 4.205-2.592 6.812-6.999 9.814-6.865 2.526.113 3.222 3.484 5.166 5.668 2.382 2.676 5.236 3.369 7.738 5.217 2.37 1.751 3.374 9.32 8.839 11.867 3.55 1.655 11.373 1.516 16.82-.656 4.694-1.871 6.928-5.75 11.309-5.46 4.166.275 4.933 7.616 8.831 10.499 4.959 3.67 13.148 2.741 19.831-.631 10.798-3.28 14.692-8.931 9.955-17.549 0 0 16.112 1.49 19.407-1.643 1.936-1.842 5.421-6.599 6.293-11.326 1.001-5.421 1.368-7.59-.679-10.136-3.313-4.122-16.284-9.513-25.66-7.557Z" style="fill:#e2e3dd"/><path d="M330.667 538.085a28.154 28.154 0 0 1-3.348-1.526c4.557-1.878 6.383-3.686 7.498-5.324-13.918 2.289-22.777-1.182-32.171-10.964.56 4.925 2.772 9.806 7.187 14.107-20.805 8.21-34.65 4.284-38.877-16.406 7.372.345 11.651-.278 13.892-2.388-9.552 1.304-19.295-2.418-28.35-13.073-6 4.88.057 11.259 8.117 17.762-12.621 5.715-24.104 4.85-30.778-8.602-.968 8.91-3.462 13.469-8.468 12.924-2.812-.307-5.538-9.879-8.385-14.922-1.28-2.268-8.507-3.71-11.899-8.008-3.136-3.972-3.194-11.813-2.118-14.895 0 0 1.321 5.631 2.845 7.92 1.535 2.307 6.365 5.921 6.365 5.921 26.998 10.071 19.209-9.562 22.439-10.641 2.83-.946 4.901 4.134 11.179 5.846 3.093.844 8.807.112 12.923-2.425 4.205-2.592 6.812-6.999 9.814-6.865 2.526.113 3.222 3.484 5.166 5.668 2.382 2.676 5.236 3.369 7.738 5.217 2.37 1.751 3.374 9.32 8.839 11.867 3.55 1.655 11.373 1.516 16.82-.656 4.694-1.871 6.928-5.75 11.309-5.46 4.166.275 4.933 7.616 8.831 10.499 4.959 3.67 13.148 2.741 19.831-.631 10.798-3.28 14.692-8.931 9.955-17.549 0 0 16.112 1.49 19.407-1.643 1.936-1.842 5.421-6.599 6.293-11.326 1.001-5.421-.679-10.136-.679-10.136 4.774 7.162-.561 18.071-2.977 22.275-1.26 2.191-.051 4.539.746 5.437 1.946 2.192 3.63 4.342 4.761 6.623l-18.143 10.56a6.655 6.655 0 0 0-1.022-1.292 66.62 66.62 0 0 1-1.624 2.832l-17.506 10.188c-.377-.13-.758-.281-1.144-.452.314.197.613.396.898.596l-15.364 8.942Z" style="fill:#d4d7ce"/><path d="m346.277 528.999-.246.144c-.285-.2-.584-.399-.898-.596.386.171.767.322 1.144.452Zm20.152-11.728-2.646 1.54a66.62 66.62 0 0 0 1.624-2.832c.418.418.758.849 1.022 1.292Zm-59.016 34.348c-3.804-.473-8.807-2.297-15.853-6.419l5.176 7.898c-12.007 7.328-22.57 5.684-28.436-3.081-1.309-1.955-.834-4.071-1.837-6.739 7.502 3.41 12.836 3.297 17.09 1.428-11.433-.263-18.375-5.195-19.628-16.046-2.49 5.98-6.705 8.565-13.927 5.233-6.422.329-12.85.378-19.311-1.115-4.125-.738-8.635-2.098-10.49-3.938-2.109-2.093-.524-5.179-.298-7.436.199-1.991.439-3.946.646-5.863 0 0 2.012 8.747 4.824 9.054 5.006.545 7.5-4.014 8.468-12.924 6.674 13.452 18.157 14.317 30.778 8.602-8.06-6.503-14.117-12.882-8.117-17.762 9.055 10.655 18.798 14.377 28.35 13.073-2.241 2.11-6.52 2.733-13.892 2.388 4.227 20.69 18.072 24.616 38.877 16.406-4.415-4.301-6.627-9.182-7.187-14.107 9.394 9.782 18.253 13.253 32.171 10.964-1.115 1.638-2.941 3.446-7.498 5.324a28.154 28.154 0 0 0 3.348 1.526l-23.254 13.534Z" style="fill:#bdc1b2"/><path d="M283.994 565.249c-12.508.958-18.452-3.441-23.322-20.023-2.829-5.724-8.111-8.531-13.056-8.719-14.138-.537-24.577-1.536-27.643-7.91.069.082.144.163.224.243 1.855 1.84 6.365 3.2 10.49 3.938 6.461 1.493 12.889 1.444 19.311 1.115 7.222 3.332 11.437.747 13.927-5.233 1.253 10.851 8.195 15.783 19.628 16.046-4.254 1.869-9.588 1.982-17.09-1.428 1.003 2.668.528 4.784 1.837 6.739 5.866 8.765 16.429 10.409 28.436 3.081l-5.176-7.898c7.046 4.122 12.049 5.946 15.853 6.419l-23.419 13.63Z" style="fill:#acb0a0"/><path d="m259.5 579.505-111.15-64.691c.639-5.475 2.652-9.756 2.652-9.756 5.029-17.007 6.846-18.253 26.449-18.57 15.321-15.717 29.185-16.404 42.151-7.846 5.278-12.036 19.432-12.924 40.764-4.798 18.774-13.524 32.773-7.888 43.204 12.068 25.567 3.809 31.656 16.915 21.273 38.003 3.9 4.213 6.374 8.814 7.217 13.359l-72.56 42.231Z" style="fill:#f1f1ef"/><path d="M301.129 520.364c-6.594-9.924-14.785-14.322-24.471-14.908 12.555-3.907 25.298 5.44 24.471 14.908Zm-115.034-21.311c-8.662 3.75-9.699 9.055-5.767 16.966-7.975-8.491-6.179-14.746 5.767-16.966Zm-36.523 16.473a49.538 49.538 0 0 1-.476-1.821c-.646-3.673 2.915-5.724 5.209-7.88 1.432-1.345 2.297-5.265 4.541-7.113 2.083-1.715 5.551-1.449 6.81-.565 2.816 1.977 3.501 10.372 5.282 8.321 2.735-3.148 6.131-13.165 12.194-13.662 5.057-.414 13.476.097 17.112-1.916 3.273-1.811 15.992-9.462 23.097-1.434 2.08 2.466 2.993 5.446 3.376 8.659-7.682-1.419-13.647-1.683-16.702.009 12.106 2.632 18.387 7.708 20.279 16.509-3.521-19.514 7.759-22.224 26.939-15.962-.078-1.933-4.029-3.883-10.666-5.011-6.982-1.187-15.703-1.278-17.5-1.912-1.868-.659-3.734-3.497-2.689-5.01 3.606-5.22 10.55-5.082 28.479-2.771 19.848-4.558 29.988-2.553 33.343 4.038-4.486.537-8.669 1.343-12.236 3.302 0 0 3.3 2.078 6.595 2.202 7.482.282 10.501-.735 14.98 1.35 5.667 2.637 9.251 7.991 10.973 7.233 2.007-2.26-.258-5.784-6.001-10.338 9.377-1.956 22.347 3.435 25.66 7.557 2.047 2.547 1.68 4.715.68 10.136-.873 4.727-4.357 9.484-6.294 11.326-3.295 3.133-19.407 1.643-19.407 1.643 4.738 8.618.843 14.269-9.954 17.549-6.683 3.373-14.872 4.301-19.831.632-3.898-2.884-4.665-10.225-8.831-10.5-4.381-.29-6.616 3.589-11.31 5.461-5.447 2.171-13.27 2.31-16.819.656-5.465-2.547-6.469-10.117-8.839-11.867-2.503-1.849-5.356-2.542-7.739-5.218-1.944-2.184-2.64-5.555-5.166-5.668-3.002-.134-5.608 4.273-9.814 6.865-4.116 2.537-9.83 3.269-12.923 2.426-6.277-1.713-8.348-6.793-11.179-5.847-2.273.76.913 10.714-6.419 13.027l-24.754-14.406Z" style="fill:#e2e3dd"/><path d="m295.087 558.793-13.149 7.652c-2.968-.544-5.805-1.509-8.489-2.951 4.557-1.878 6.383-3.685 7.497-5.324-13.918 2.289-22.776-1.181-32.171-10.964.56 4.925 2.773 9.806 7.188 14.107-8.232 3.248-15.373 4.597-21.261 3.759l-12.259-7.135c-2.432-3.217-4.234-7.532-5.358-13.03 7.373.345 11.652-.277 13.893-2.388-9.552 1.304-19.296-2.418-28.35-13.073-6.001 4.88.056 11.259 8.117 17.762a45.934 45.934 0 0 1-3.994 1.596l-32.425-18.872c7.332-2.313 4.146-12.267 6.419-13.027 2.831-.946 4.902 4.134 11.179 5.847 3.093.843 8.807.111 12.923-2.426 4.206-2.592 6.812-6.999 9.814-6.865 2.526.113 3.222 3.484 5.166 5.668 2.383 2.676 5.236 3.369 7.739 5.218 2.37 1.75 3.374 9.32 8.839 11.867 3.549 1.654 11.372 1.515 16.819-.656 4.694-1.872 6.929-5.751 11.31-5.461 4.166.275 4.933 7.616 8.831 10.5 4.959 3.669 13.148 2.741 19.831-.632 10.797-3.28 14.692-8.931 9.954-17.549 0 0 16.112 1.49 19.407-1.643 1.937-1.842 5.421-6.599 6.294-11.326 1-5.421-.68-10.136-.68-10.136 4.774 7.163-.561 18.072-2.977 22.275-1.26 2.191-.051 4.539.746 5.437 2.955 3.327 5.304 6.559 6.038 10.299l-18.933 11.019c.553-1.979.119-3.799-1.508-5.427-2.915 5.364-5.959 9.481-9.345 11.743l-1.437.837c-2.872 1.428-5.997 1.538-9.492-.012 1.699 1.069 2.968 2.175 3.824 3.311Zm-145.515-43.267-.819-.477c.095-.51.211-.963.343-1.344 0 0 .177.753.476 1.821Z" style="fill:#d4d7ce"/><path d="m257.778 578.502-23.076-13.43c5.888.838 13.029-.511 21.261-3.759-4.415-4.301-6.628-9.182-7.188-14.107 9.395 9.783 18.253 13.253 32.171 10.964-1.114 1.639-2.94 3.446-7.497 5.324 2.684 1.442 5.52 2.407 8.489 2.951L261.5 578.34a19.265 19.265 0 0 0 2.397-2.545c-1.776 1.199-3.649 2.289-6.119 2.707Zm42.977-23.008-5.668 3.299c-.856-1.136-2.125-2.242-3.824-3.311 3.495 1.55 6.62 1.44 9.492.012Zm12.29-7.153-10.853 6.316c3.386-2.262 6.43-6.379 9.345-11.743 1.627 1.628 2.061 3.448 1.508 5.427Zm-90.602 9.596-15.692-9.133a45.934 45.934 0 0 0 3.994-1.596c-8.061-6.503-14.118-12.882-8.117-17.762 9.054 10.655 18.798 14.377 28.35 13.073-2.241 2.111-6.52 2.733-13.893 2.388 1.124 5.498 2.926 9.813 5.358 13.03Z" style="fill:#bdc1b2"/><path d="m259.5 579.505-1.722-1.003c2.47-.418 4.343-1.508 6.119-2.707a19.326 19.326 0 0 1-2.396 2.545l-2.001 1.165Z" style="fill:#acb0a0"/><path d="M126.891 502.325 25.607 443.377c7.337-3.316 18.424-1.924 32.745 3.531 18.773-13.524 32.773-7.887 43.204 12.069 25.567 3.809 31.656 16.915 21.272 38.003 1.599 1.727 2.958 3.519 4.063 5.345Z" style="fill:#f1f1ef"/><path d="m115.228 495.537-19.624-11.421c-2.492-2.783-6.105-4.964-10.21-5.943l-37.346-21.736c1.504.177 3.1.376 4.794.595 19.849-4.558 29.989-2.553 33.344 4.038-4.486.536-8.669 1.343-12.236 3.301 0 0 3.3 2.079 6.595 2.203 7.482.282 10.5-.735 14.98 1.349 5.666 2.638 9.251 7.991 10.973 7.234 2.007-2.26-.258-5.785-6.001-10.338 9.376-1.956 22.347 3.435 25.66 7.557 2.047 2.546 1.68 4.715.68 10.136-.873 4.727-4.358 9.484-6.294 11.326-.945.898-2.944 1.417-5.315 1.699Z" style="fill:#e2e3dd"/><path d="m124.827 501.124-9.599-5.587c2.371-.282 4.37-.801 5.315-1.699 1.936-1.842 5.421-6.599 6.294-11.326 1-5.421-.68-10.136-.68-10.136 4.774 7.162-.561 18.071-2.977 22.275-1.26 2.191-.051 4.539.746 5.437.307.346.608.691.901 1.036Z" style="fill:#d4d7ce"/><path d="M200.876 545.385 78.674 474.262c2.973-7.183 11.082-11.896 24.788-13.938 10.431-19.957 24.43-25.593 43.203-12.069 21.332-8.125 35.487-7.237 40.765 4.798 12.966-8.558 26.829-7.871 42.151 7.846 19.603.318 21.42 1.563 26.449 18.57 0 0 5.261 11.187 1.475 20.52-1.998 4.925-9.083 7.472-12.804 10.837-3.772 3.41-4.167 7.607-4.037 8.017 5.245 16.563-7.357 18.251-27.378 19.011-4.59.174-9.47 2.605-12.41 7.531Z" style="fill:#f1f1ef"/><path d="M220.937 473.465c8.661 3.749 9.699 9.054 5.766 16.966 7.975-8.491 6.18-14.746-5.766-16.966Zm-142.416.708a9.14 9.14 0 0 1 .339-.45c3.314-4.122 16.284-9.513 25.66-7.557-5.742 4.553-8.008 8.077-6.001 10.338 1.722.757 5.307-4.596 10.974-7.234 4.479-2.085 7.497-1.067 14.98-1.349 3.294-.124 6.595-2.203 6.595-2.203-3.567-1.959-7.751-2.765-12.236-3.301 3.354-6.591 13.494-8.596 33.343-4.039 17.928-2.311 24.873-2.449 28.479 2.771 1.045 1.513-.822 4.352-2.689 5.01-1.797.634-10.519.726-17.5 1.912-6.637 1.128-10.588 3.079-10.666 5.011 19.18-6.261 30.46-3.552 26.939 15.963 1.892-8.802 8.173-13.878 20.279-16.509-3.056-1.693-9.021-1.428-16.702-.009.383-3.214 1.296-6.194 3.375-8.66 7.106-8.028 19.825-.377 23.097 1.435 3.637 2.012 12.056 1.501 17.113 1.916 6.063.497 9.459 10.513 12.193 13.662 1.782 2.051 2.467-6.344 5.283-8.322 1.258-.884 4.727-1.15 6.81.566 2.244 1.848 3.109 5.768 4.54 7.112 2.295 2.156 5.855 4.208 5.209 7.88 0 0-1.321 5.632-2.844 7.921-1.535 2.306-6.366 5.92-6.366 5.92-26.998 10.071-19.209-9.561-22.438-10.641-2.831-.946-4.902 4.135-11.18 5.847-3.093.844-8.807.112-12.923-2.425-4.205-2.593-6.811-7-9.813-6.865-2.527.113-3.223 3.484-5.167 5.667-2.382 2.677-5.235 3.37-7.738 5.218-2.37 1.751-3.374 9.32-8.839 11.867-3.55 1.654-11.373 1.516-16.819-.656-4.695-1.872-6.929-5.75-11.31-5.461-2.083.138-3.316 2.042-4.516 4.272l-29.687-17.278c6.149-7.632 13.532-11.118 22.078-11.635-10.606-3.3-21.347 2.859-23.927 10.559l-27.925-16.253Z" style="fill:#e2e3dd"/><path d="m182.506 534.693-44.524-25.913c1.2-2.23 2.433-4.134 4.516-4.272 4.381-.289 6.615 3.589 11.31 5.461 5.446 2.172 13.269 2.31 16.819.656 5.465-2.547 6.469-10.116 8.839-11.867 2.503-1.848 5.356-2.541 7.738-5.218 1.944-2.183 2.64-5.554 5.167-5.667 3.002-.135 5.608 4.272 9.813 6.865 4.116 2.537 9.83 3.269 12.923 2.425 6.278-1.712 8.349-6.793 11.18-5.847 3.229 1.08-4.56 20.712 22.438 10.641 0 0 4.831-3.614 6.366-5.92 1.523-2.289 2.844-7.921 2.844-7.921 1.076 3.083 1.018 10.923-2.117 14.896-3.393 4.298-10.62 5.74-11.9 8.008-2.847 5.043-5.573 14.615-8.385 14.921-5.006.546-7.499-4.013-8.468-12.923-6.674 13.451-18.156 14.317-30.778 8.602 8.061-6.503 14.117-12.882 8.117-17.762-9.055 10.655-18.798 14.377-28.35 13.073 2.241 2.11 6.52 2.733 13.892 2.388-1.423 6.967-3.937 12.033-7.44 15.374ZM78.69 474.271l-.128-.074c.095-.16.194-.318.298-.474 0 0-.069.194-.17.548Z" style="fill:#d4d7ce"/><path d="m192.564 540.547-10.058-5.854c3.503-3.341 6.017-8.407 7.44-15.374-7.372.345-11.651-.278-13.892-2.388 9.552 1.304 19.295-2.418 28.35-13.073 6 4.88-.056 11.259-8.117 17.762 12.622 5.715 24.104 4.849 30.778-8.602.969 8.91 3.462 13.469 8.468 12.923 2.812-.306 4.824-9.053 4.824-9.053.207 1.916.448 3.872.647 5.863.225 2.256 1.81 5.343-.299 7.435-1.854 1.841-6.365 3.201-10.489 3.939-6.462 1.493-12.89 1.444-19.311 1.115-7.223 3.332-11.438.747-13.928-5.234-.52 4.503-2.019 7.987-4.413 10.541Z" style="fill:#bdc1b2"/><path d="m200.876 545.385-8.312-4.838c2.394-2.554 3.893-6.037 4.413-10.541 2.49 5.981 6.705 8.566 13.928 5.234 6.421.329 12.849.378 19.311-1.115 4.124-.738 8.635-2.098 10.489-3.939.08-.079.155-.16.224-.242-3.066 6.374-13.505 7.373-27.643 7.91-4.59.174-9.47 2.605-12.41 7.531Z" style="fill:#acb0a0"/></g><g id="bottom"><path d="M368.496 488.969a3.862 3.862 0 0 1-1.552-.334 3.781 3.781 0 0 1-2.188-2.958 3.797 3.797 0 0 1 .028-1.146 3.81 3.81 0 0 1 2.077-2.732 3.78 3.78 0 0 1 4.103.548 3.8 3.8 0 0 1 .847 1.053 3.786 3.786 0 0 1 .437 2.183 3.8 3.8 0 0 1-1.796 2.839 3.855 3.855 0 0 1-1.571.528 5.512 5.512 0 0 1-.385.019ZM148.301 488.969a3.859 3.859 0 0 1-1.552-.334 3.781 3.781 0 0 1-2.189-2.958 3.812 3.812 0 0 1 .046-1.238 3.803 3.803 0 0 1 2.06-2.639 3.777 3.777 0 0 1 2.931-.144 3.786 3.786 0 0 1 2.398 2.783c.077.375.096.762.057 1.144a3.797 3.797 0 0 1-1.796 2.839 3.85 3.85 0 0 1-1.571.528 5.483 5.483 0 0 1-.384.019ZM259.255 552.267c-.184-.011-.352-.066-.527-.123l-.04-.012h-.378c-.07-.004-.069-.006-.138-.015a.969.969 0 0 1-.298-.121l-.009-.007-.112-.015-.162-.067c-34.117-19.688-68.648-38.675-102.35-59.065a3.175 3.175 0 0 1-1.208-1.382 3.101 3.101 0 0 1-.257-1.019 3.231 3.231 0 0 1 1.275-2.802 3.118 3.118 0 0 1 2.065-.603c.474.033.927.177 1.344.402l88.041 50.793-35.844-45.758a3.409 3.409 0 0 1-.579-1.27c-.207-.951.012-1.989.648-2.736.139-.164.296-.312.468-.441 1.012-.76 2.452-.875 3.556-.244.344.196.64.46.882.773l40.275 51.391c0-16.617-.184-33.234.001-49.849a3.38 3.38 0 0 1 .408-1.547 3.078 3.078 0 0 1 1.772-1.442c.969-.308 2.061-.168 2.898.417a3.262 3.262 0 0 1 1.144 1.433c.149.365.226.75.24 1.143l.001.076v49.769c13.457-17.17 26.556-34.626 40.37-51.509a3.01 3.01 0 0 1 .993-.762c1.123-.532 2.527-.347 3.478.453.143.12.274.254.391.4.648.804.827 1.915.54 2.898a3.37 3.37 0 0 1-.522 1.047l-35.841 45.754c28.799-16.636 57.441-33.546 86.395-49.909.07-.037.14-.071.211-.104a3.04 3.04 0 0 1 .815-.221 3.226 3.226 0 0 1 2.926 1.246c.626.836.793 1.968.509 2.965-.144.51-.409.994-.801 1.356a2.556 2.556 0 0 1-.348.265l-.058.035-100.607 58.047-.162.067-.112.015c-.024.017-.05.031-.076.046a.933.933 0 0 1-.447.097c-.024.014-.051.024-.076.036-.069.027-.08.034-.151.052a1.504 1.504 0 0 1-.32.044c-.111.003-.111.002-.223.003ZM315.415 485.024c5.521 0 9.427-4.175 9.427-9.158 0-5.118-3.906-9.158-9.427-9.158-5.522 0-9.562 4.175-9.562 9.158.134 5.117 4.04 9.158 9.562 9.158Zm-5.387-9.158c0-3.098 2.154-5.522 5.387-5.522 3.097 0 5.387 2.559 5.387 5.656 0 3.098-2.155 5.522-5.387 5.522-3.098-.135-5.387-2.559-5.387-5.656ZM254.493 481.041c1.049-.109 1.734-.706 1.885-2.017v-5.256h6.734c.943 0 1.751-.808 1.751-1.75 0-.943-.808-1.751-1.751-1.751h-6.734v-3.636h7.946c.943 0 1.751-.808 1.751-1.751 0-.943-.808-1.751-1.751-1.751h-9.831c-1.078 0-2.02.808-2.02 2.02v13.872c.134 1.212.942 2.02 2.02 2.02ZM201.479 485.476c2.503-.109 4.71-1.017 6.601-2.534 3.046-2.444 3.883-5.706 1.692-8.437-1.939-2.416-4.357-2.202-7.784-.661-2.921 1.308-3.804 1.499-4.479.658-.505-.63-.381-1.766.775-2.693.945-.759 2.143-1.202 3.699-1.415.295-.063.694-.211.904-.38.841-.674.965-1.81.375-2.545-.506-.63-1.158-.798-1.642-.755-1.934.171-3.742.931-5.423 2.279-2.836 2.276-3.483 5.558-1.46 8.079 2.191 2.731 4.651 2.139 7.993.493 2.817-1.224 3.595-1.33 4.269-.49.674.841.276 1.851-.984 2.862-1.366 1.096-2.943 1.498-4.583 1.605-.295.064-.778.107-1.093.36-.841.674-.965 1.81-.375 2.545.38.904 1.032 1.071 1.515 1.029Z" style="fill:#696969;fill-rule:nonzero"/></g><g id="top"><path d="M257.816 45.265c.051-.009.095-.014.06-.012-.03.005-.03.004-.06.012Zm1.323 65.035a3.354 3.354 0 0 1-1.144-.206 3.258 3.258 0 0 1-1.902-1.948 3.361 3.361 0 0 1-.185-.999l-.001-.075V57.303c-13.456 17.17-26.555 34.626-40.37 51.509a3.03 3.03 0 0 1-.992.762 3.307 3.307 0 0 1-3.478-.453 2.906 2.906 0 0 1-.392-.4c-.647-.804-.827-1.915-.54-2.898.111-.379.29-.729.522-1.047l35.845-45.759c-28.845 16.638-57.545 33.527-86.533 49.914a3.005 3.005 0 0 1-1.254.343 3.23 3.23 0 0 1-2.699-1.264 3.214 3.214 0 0 1-.625-1.689 3.097 3.097 0 0 1 1.598-2.935l100.602-58.045c.103-.044.1-.054.212-.074l.137-.065c.107-.043.211-.07.325-.083.537-.032 1.075-.005 1.612-.002.2.007.392.043.569.143.069.038.129.085.19.135l-.015-.015c34.095 19.676 68.69 38.509 102.285 59.029.069.044.136.09.202.139.295.227.55.495.754.807.598.915.754 2.153.286 3.158-.376.809-1.157 1.351-2.01 1.557a3.308 3.308 0 0 1-.585.089 5.196 5.196 0 0 1-.353.006 3.354 3.354 0 0 1-.663-.062 2.204 2.204 0 0 1-.742-.306l-88.018-50.779 35.844 45.758c.048.065.093.131.138.198.179.288.317.595.405.923.223.837.115 1.76-.337 2.504a2.895 2.895 0 0 1-.437.556c-.085.085-.177.159-.269.236-.081.07-.157.142-.243.205a2.48 2.48 0 0 1-.549.3c-.443.173-.927.22-1.399.189a3.212 3.212 0 0 1-1.201-.308 3.244 3.244 0 0 1-1.076-.878l-40.282-51.398c0 16.616.19 33.234-.001 49.849a3.442 3.442 0 0 1-.269 1.264 3.097 3.097 0 0 1-1.686 1.644 3.461 3.461 0 0 1-1.276.24Z" style="fill:#fff;fill-rule:nonzero"/><g id="nodeschool-banner"><path d="M168.906 155.147c1.078 0 1.886-.808 1.886-1.886v-9.562l7.811 10.236c.539.673 1.077 1.212 2.02 1.212h.135c1.077 0 2.02-.808 2.02-2.02v-14.141c0-1.078-.808-1.886-1.886-1.886-1.077 0-1.885.808-1.885 1.886v9.158l-7.542-9.966c-.539-.674-1.077-1.212-2.02-1.212h-.404c-1.078 0-2.02.808-2.02 2.02v14.141c0 1.212.808 2.02 1.885 2.02ZM195.707 155.282c5.521 0 9.562-4.175 9.562-9.158 0-5.118-3.906-9.158-9.428-9.158-5.521 0-9.562 4.175-9.562 9.158 0 5.117 3.906 9.158 9.428 9.158Zm-5.253-9.158c0-3.098 2.155-5.522 5.387-5.522 3.098 0 5.387 2.559 5.387 5.656 0 3.098-2.154 5.522-5.387 5.522-3.232-.135-5.387-2.559-5.387-5.656ZM210.656 155.012h4.983c5.656 0 9.427-3.905 9.427-8.888 0-4.983-3.906-8.889-9.427-8.889h-4.983c-1.078 0-2.02.808-2.02 2.02v13.737c.134 1.212.942 2.02 2.02 2.02Zm2.02-14.275h2.963c3.232 0 5.387 2.154 5.387 5.387 0 3.097-2.155 5.387-5.387 5.387h-2.963v-10.774ZM230.588 155.012h9.966c.943 0 1.751-.808 1.751-1.751 0-.942-.808-1.75-1.751-1.75h-8.081v-3.771h6.734c.943 0 1.751-.808 1.751-1.751 0-.943-.808-1.751-1.751-1.751h-6.734v-3.636h7.946c.943 0 1.751-.808 1.751-1.751 0-.943-.808-1.751-1.751-1.751h-9.831c-1.078 0-2.02.808-2.02 2.02v13.872c.134 1.212.942 2.02 2.02 2.02ZM245.402 153.127c2.02 1.481 4.31 2.155 6.734 2.155 3.906 0 6.599-2.021 6.599-5.522 0-3.098-2.02-4.444-5.656-5.387-3.098-.808-3.906-1.212-3.906-2.29 0-.808.808-1.616 2.29-1.616 1.212 0 2.424.404 3.771 1.212.269.135.673.27.942.27 1.078 0 1.886-.808 1.886-1.751 0-.808-.404-1.347-.808-1.616-1.616-1.078-3.502-1.616-5.657-1.616-3.636 0-6.195 2.154-6.195 5.387 0 3.501 2.29 4.579 5.926 5.387 2.963.808 3.636 1.212 3.636 2.289 0 1.078-.943 1.616-2.559 1.616-1.75 0-3.232-.673-4.579-1.616-.269-.134-.673-.404-1.077-.404-1.077 0-1.886.808-1.886 1.751-.269.943.135 1.481.539 1.751ZM270.317 155.282c2.828 0 4.714-.808 6.33-2.29.404-.269.673-.808.673-1.347 0-.942-.808-1.75-1.885-1.75-.404 0-.808.134-1.212.404-1.078.942-2.155 1.346-3.906 1.346-3.097 0-5.117-2.558-5.117-5.656s2.154-5.522 5.117-5.522c1.347 0 2.559.404 3.637 1.212.269.135.673.404 1.212.404 1.077 0 1.885-.808 1.885-1.885 0-.673-.404-1.212-.808-1.616-1.481-1.078-3.232-1.751-5.926-1.751-5.521 0-9.292 4.175-9.292 9.158.269 5.252 4.175 9.293 9.292 9.293ZM282.842 155.147c1.078 0 2.02-.808 2.02-2.02v-5.387h7.273v5.387c0 1.077.808 2.02 2.02 2.02 1.077 0 2.02-.808 2.02-2.02v-14.141c0-1.078-.808-2.02-2.02-2.02-1.077 0-2.02.808-2.02 2.02v5.252h-7.273v-5.252c0-1.078-.808-2.02-2.02-2.02-1.077 0-2.02.808-2.02 2.02v14.141c0 1.212.808 2.02 2.02 2.02ZM308.835 155.282c5.521 0 9.427-4.175 9.427-9.158 0-5.118-3.906-9.158-9.427-9.158-5.522 0-9.562 4.175-9.562 9.158.134 5.117 4.04 9.158 9.562 9.158Zm-5.387-9.158c0-3.098 2.154-5.522 5.387-5.522 3.097 0 5.387 2.559 5.387 5.656 0 3.098-2.155 5.522-5.387 5.522-3.098-.135-5.387-2.559-5.387-5.656ZM330.518 155.282c5.521 0 9.562-4.175 9.562-9.158 0-5.118-3.906-9.158-9.428-9.158s-9.562 4.175-9.562 9.158c0 5.117 3.906 9.158 9.428 9.158Zm-5.388-9.158c0-3.098 2.155-5.522 5.388-5.522 3.097 0 5.387 2.559 5.387 5.656 0 3.098-2.155 5.522-5.387 5.522-3.098-.135-5.388-2.559-5.388-5.656ZM345.467 155.012h9.158c.942 0 1.75-.808 1.75-1.751 0-.942-.808-1.75-1.75-1.75h-7.273V139.12c0-1.077-.808-2.02-2.02-2.02-1.078 0-2.02.808-2.02 2.02v13.872c.134 1.212 1.077 2.02 2.155 2.02Z" style="fill:#fff;fill-rule:nonzero"/></g></g><path d="M259.5 600a9.289 9.289 0 0 1-2.196-.268 10.283 10.283 0 0 1-2.379-.953c-83.291-48.477-166.799-96.576-249.873-145.43a9.218 9.218 0 0 1-1.669-1.296 9.4 9.4 0 0 1-2.53-4.53 9.564 9.564 0 0 1-.243-1.951c-.813-97.044-.813-194.1 0-291.144.016-.658.093-1.31.243-1.951a9.4 9.4 0 0 1 2.53-4.53 9.218 9.218 0 0 1 1.669-1.296C88.17 97.771 171.126 48.589 255.058 1.146a9.463 9.463 0 0 1 2.091-.841 9.24 9.24 0 0 1 4.989.081 9.525 9.525 0 0 1 1.804.76c83.932 47.443 166.888 96.625 250.006 145.505a9.218 9.218 0 0 1 1.669 1.296 9.4 9.4 0 0 1 2.53 4.53c.15.641.227 1.293.243 1.951.813 97.044.813 194.1 0 291.144a9.564 9.564 0 0 1-.243 1.951 9.4 9.4 0 0 1-2.53 4.53 9.218 9.218 0 0 1-1.669 1.296c-83.159 48.904-166.197 98.036-250.128 145.577a8.678 8.678 0 0 1-1.217.548 9.419 9.419 0 0 1-2.8.521c-.152.004-.152.004-.303.005Zm0-20.495 240.053-139.714V160.209L259.5 20.495 19.447 160.209v279.582L259.5 579.505Z" style="fill:#fff;fill-rule:nonzero"/><defs><linearGradient id="_Linear1" x1="0" y1="0" x2="1" y2="0" gradientUnits="userSpaceOnUse" gradientTransform="matrix(.23545 568.33 -564.367 .2371 259.398 22.173)"><stop offset="0%" style="stop-color:#004c90;stop-opacity:1"/><stop offset="100%" style="stop-color:#64d7ff;stop-opacity:1"/></linearGradient></defs></svg>